# xmcd
#
# Track frame offsets:
#	150
#	6678
#	13776
#	20148
#	29051
#	35822
#	42714
#	49688
#	57085
#	64473
#	71698
#	79145
#	86461
#	92533
#	99838
#	107952
#	115232
#	123793
#	131735
#	139136
#	147110
#	156447
#	169958
#	180303
#
# Disc length: 2578 seconds
#
# Revision: 0
# Processed by: cddbd v1.5.2PL0 Copyright (c) Steve Scherf et al.
# Submitted via: EasyCDDAExtractor 16.0.4.1
#
DISCID=5e0a1018
DTITLE=Staple Singers - Very Best Of
DYEAR=2008
DGENRE=Spiritual
TTITLE0=Calling Me
TTITLE1=Don't Drive Me Away
TTITLE2=Don't Knock
TTITLE3=God's Wonderful Love
TTITLE4=Going Away
TTITLE5=Help Me Jesus
TTITLE6=If I Could Hear My Mother's Prayer
TTITLE7=I Had A Dream
TTITLE8=I Know I've Got Religion
TTITLE9=I'm Coming Home
TTITLE10=I'm Leaving
TTITLE11=Let's Do It Again
TTITLE12=Let's Go Home
TTITLE13=Low Is The Way
TTITLE14=Pray On, My Child
TTITLE15=So Soon
TTITLE16=This May Be The Last Time
TTITLE17=Touch A Hand, Make A Friend
TTITLE18=Uncloudy Day
TTITLE19=Will The Circle Be Unbroken
TTITLE20=Just A Closer Walk
TTITLE21=He's Alright
TTITLE22=On My Way To Heaven
TTITLE23=Swing Low Sweet Chariot
EXTD=
EXTT0=
EXTT1=
EXTT2=
EXTT3=
EXTT4=
EXTT5=
EXTT6=
EXTT7=
EXTT8=
EXTT9=
EXTT10=
EXTT11=
EXTT12=
EXTT13=
EXTT14=
EXTT15=
EXTT16=
EXTT17=
EXTT18=
EXTT19=
EXTT20=
EXTT21=
EXTT22=
EXTT23=
PLAYORDER=
